<svg xmlns="http://www.w3.org/2000/svg" viewBox="0 0 432.86 383.05"><defs><style>.cls-1{fill:#acf39d;}.cls-2{fill:#68dde0;}.cls-3{fill:#fad467;}</style></defs><title>logo-transparent-color</title><g id="Layer_2" data-name="Layer 2"><g id="Layer_1-2" data-name="Layer 1"><path class="cls-1" d="M371.93,92.53,365.6,75l-164,103,27.21,18.33,120.35-75.6a187.48,187.48,0,0,1,5.56,45.76A186.86,186.86,0,0,1,167.91,353.05h-.33A185.21,185.21,0,0,1,48.3,309.77l70.3-44.16a144.28,144.28,0,0,1-29.54-16.87L0,304.68,13,318a215.26,215.26,0,0,0,154.49,65.07h.38a217,217,0,0,0,204-290.52Z"/><path class="cls-2" d="M174.49,291.94c-80.22,0-149.34-60.74-158-142.25A158.7,158.7,0,0,1,30.65,65.57l7.44-15.85L303,228.25,291.12,241.1a159.17,159.17,0,0,1-116.63,50.84ZM51.4,94.86a129,129,0,0,0,204.78,138Z"/><path class="cls-2" d="M232.54,194,206.91,153.2A100.42,100.42,0,0,1,377.36,47l25.23,40.13Zm.56-55.48L242,152.62l119.26-75L352,62.92a70.43,70.43,0,0,0-119.26,75Z"/><path class="cls-3" d="M346.37,86.9a45.39,45.39,0,1,0,76.2-48.05Z"/></g></g></svg>