<svg xmlns="http://www.w3.org/2000/svg" viewBox="0 0 432.86 383.05"><defs><style>.cls-1{fill:#fff;}.cls-2{fill:#acf39d;}.cls-3{fill:#68dde0;}.cls-4{fill:#fad467;}</style></defs><title>Asset 7</title><g id="Layer_2" data-name="Layer 2"><g id="Layer_1-2" data-name="Layer 1"><path class="cls-1" d="M357.82,97.63,23.75,307.48a201.21,201.21,0,0,0,143.81,60.57c111.48.19,202-90,202.21-201.52A201.41,201.41,0,0,0,357.82,97.63Z"/><path class="cls-2" d="M167.91,383.05h-.38A215.3,215.3,0,0,1,13,318L0,304.69,365.6,75l6.33,17.51a216.91,216.91,0,0,1-204,290.52ZM48.3,309.77a185.21,185.21,0,0,0,119.28,43.28h.33a187,187,0,0,0,181.3-232.3Z"/><path class="cls-1" d="M31.46,148.11A143.94,143.94,0,0,0,280.12,230.9l-235.9-159A143.3,143.3,0,0,0,31.46,148.11Z"/><path class="cls-3" d="M174.49,291.94c-80.22,0-149.34-60.74-158-142.25A158.7,158.7,0,0,1,30.65,65.57l7.44-15.85L303,228.25,291.12,241.1a159.17,159.17,0,0,1-116.63,50.84ZM51.4,94.86a129,129,0,0,0,204.78,138Z"/><path class="cls-1" d="M246.88,28.08A85.42,85.42,0,0,0,220,145.87h0l17.25,27.43,5.4-3.4L376.51,85.76l5.4-3.39L364.66,54.94A85.41,85.41,0,0,0,246.88,28.08Z"/><path class="cls-3" d="M232.54,194,206.91,153.2A100.42,100.42,0,0,1,377.36,47l25.23,40.13Zm.56-55.48L242,152.62l119.26-75L352,62.92a70.43,70.43,0,0,0-119.26,75Z"/><path class="cls-4" d="M346.37,86.9a45.39,45.39,0,1,0,76.2-48.05Z"/><path class="cls-1" d="M167.91,353.05a187.07,187.07,0,0,0,181.3-232.3L242.75,187.63,303,228.25,291.12,241.1a158.75,158.75,0,0,1-187.61,34L48.3,309.77a185.21,185.21,0,0,0,119.28,43.28Z"/></g></g></svg>